<svg xmlns="http://www.w3.org/2000/svg" xmlns:xlink="http://www.w3.org/1999/xlink" viewBox="0 0 148.7 195.46"><defs><style>.cls-1{fill:#ea8600;}.cls-2{fill:#333;}.cls-3{fill:url(#linear-gradient);}.cls-4{fill:#fff;}</style><linearGradient id="linear-gradient" x1="38.24" y1="28.29" x2="110.03" y2="120.18" gradientUnits="userSpaceOnUse"><stop offset="0.01" stop-color="#e8edf0"></stop><stop offset="0.27" stop-color="#fff"></stop><stop offset="0.54" stop-color="#e9e7e4"></stop><stop offset="0.72" stop-color="#e0ddd9"></stop><stop offset="1" stop-color="#f8f8f9"></stop></linearGradient></defs><g id="Camada_2" data-name="Camada 2"><g id="Camada_1-2" data-name="Camada 1"><polygon class="cls-1" points="76.16 138.75 41.43 124.22 17.21 182.08 43.02 170.97 52.16 195.46 76.16 138.75"></polygon><polygon class="cls-1" points="105.14 121.91 71.2 138.19 98.36 194.75 107.2 168.08 131.57 177.51 105.14 121.91"></polygon><path class="cls-2" d="M125.68,121.77c-2,2.18-2.37,9-4.66,10.83s-9,.82-11.56,2.31-4.9,7.88-7.64,9S93,142,90.1,142.69s-7,5.92-9.95,6.32-7.91-4.41-10.85-4.6-8.53,3.89-11.38,3.11-6.25-6.54-9-7.6-9.21,1.07-11.77-.38-4.06-8.09-6.38-9.91-9.12-1.7-11.14-3.84-1.49-8.93-3.17-11.35-8.22-4.31-9.52-7,1.21-9,.32-11.79S.66,89.17.2,86.26,4,78,4,75.09-.39,66.91,0,64s6.05-6.74,6.9-9.56-1.76-9.11-.5-11.78S14.2,38,15.84,35.56s1-9.23,3-11.4,8.79-2.15,11.09-4,3.68-8.52,6.21-10,9,.53,11.78-.57,6-7,8.89-7.73S65.28,5,68.22,4.77,76.06-.19,79,0s7.16,5.53,10,6.16S98,3.74,100.75,4.79s5.21,7.4,7.78,8.85,9.27.32,11.59,2.14,2.8,8.6,4.82,10.75,8.77,3,10.45,5.46.15,9.05,1.44,11.7,7.49,5.48,8.38,8.28-2.53,8.7-2.07,11.61S148.68,71,148.7,74s-5,7.56-5.4,10.48,3.1,8.74,2.25,11.57-7,5.75-8.25,8.42.38,9.27-1.26,11.72S127.67,119.6,125.68,121.77Z"></path><path class="cls-3" d="M127.8,74.51A53.45,53.45,0,1,1,74.35,21.07,53.45,53.45,0,0,1,127.8,74.51Z"></path><path class="cls-4" d="M74.35,131.93a57.42,57.42,0,1,1,57.41-57.42A57.48,57.48,0,0,1,74.35,131.93ZM74.35,18a56.51,56.51,0,1,0,56.5,56.5A56.57,56.57,0,0,0,74.35,18Z"></path><path class="cls-4" d="M74.35,139.61a65.1,65.1,0,1,1,65.1-65.1A65.17,65.17,0,0,1,74.35,139.61Zm0-128.27a63.18,63.18,0,1,0,63.18,63.17A63.25,63.25,0,0,0,74.35,11.34Z"></path><path class="cls-1" d="M38,67.43H34.83v-5H43.6V85.52H38Z"></path><path class="cls-1" d="M56.21,61.92c6.59,0,8.9,4.94,8.9,11.72s-2.31,11.79-8.9,11.79-8.9-4.94-8.9-11.79S49.62,61.92,56.21,61.92Zm0,5.07c-3.2,0-3.58,3.1-3.58,6.65s.38,6.72,3.58,6.72,3.58-3,3.58-6.72S59.41,67,56.21,67Z"></path><path class="cls-1" d="M76.86,61.92c6.6,0,8.91,4.94,8.91,11.72s-2.31,11.79-8.91,11.79S68,80.49,68,73.64,70.28,61.92,76.86,61.92Zm0,5.07c-3.19,0-3.57,3.1-3.57,6.65s.38,6.72,3.57,6.72,3.59-3,3.59-6.72S80.06,67,76.86,67Z"></path><path class="cls-1" d="M93.46,62.87c3,0,5.26,1.84,5.26,5.36s-2.25,5.35-5.26,5.35a5,5,0,0,1-5.29-5.35A5,5,0,0,1,93.46,62.87Zm-1.55,5.36c0,1.48.57,2.15,1.52,2.15S95,69.71,95,68.23,94.38,66,93.43,66,91.91,66.7,91.91,68.23Zm12.55-5h5.23l-12.2,22.3H92.26Zm4.05,11.94c3,0,5.26,1.81,5.26,5.36s-2.25,5.35-5.26,5.35-5.26-1.84-5.26-5.35S105.5,75.16,108.51,75.16ZM107,80.52c0,1.49.57,2.15,1.52,2.15S110,82,110,80.52s-.6-2.19-1.55-2.19S107,79,107,80.52Z"></path><path class="cls-2" d="M76.87,112.69a2.52,2.52,0,1,1-2.52-2.52A2.52,2.52,0,0,1,76.87,112.69Z"></path><polygon class="cls-2" points="51.99 112.57 69.63 114.15 69.63 111.49 51.99 112.57"></polygon><polygon class="cls-2" points="96.72 112.57 79.08 114.15 79.08 111.49 96.72 112.57"></polygon><path class="cls-2" d="M42.92,51.44H40.68A1.74,1.74,0,0,0,39,50.59,2.14,2.14,0,0,0,36.86,53a2.2,2.2,0,0,0,2.34,2.45,2,2,0,0,0,2-1.47H38.65v-1.5h4.42v1.89a4.25,4.25,0,1,1-4-5.62A3.7,3.7,0,0,1,42.92,51.44Z"></path><path class="cls-2" d="M49.39,55.67H46.27l-.5,1.47H43.65l3-8.34H49l3,8.34H49.88Zm-1.56-4.62-1,3.05h2Z"></path><path class="cls-2" d="M56.36,48.8c2,0,3.06,1.18,3.06,2.63a2.43,2.43,0,0,1-1.85,2.41l1.93,3.3H57.2L55.47,54H55v3.14H53V48.8Zm-.12,1.69H55v2.07h1.26c.76,0,1.12-.39,1.12-1.05S57,50.49,56.24,50.49Z"></path><path class="cls-2" d="M65.89,55.67H62.77l-.5,1.47H60.15l3-8.34h2.36l3,8.34H66.39Zm-1.56-4.62-1,3.05h2Z"></path><path class="cls-2" d="M76.91,48.8v8.34h-2L71.48,52v5.14h-2V48.8h2L74.88,54V48.8Z"></path><path class="cls-2" d="M77.93,48.8h6.45v1.63H82.17v6.71h-2V50.43H77.93Z"></path><path class="cls-2" d="M85.4,48.8h2v8.34h-2Z"></path><path class="cls-2" d="M94.1,55.67H91l-.5,1.47H88.36l3-8.34h2.35l3,8.34H94.6Zm-1.56-4.62-1,3.05h2.06Z"></path><path class="cls-2" d="M107.68,53a4,4,0,0,1-4.37,4.17h-3.13V48.8h3.13A4,4,0,0,1,107.68,53Zm-4.5,2.42a2.43,2.43,0,1,0,0-4.85h-1v4.85Z"></path><path class="cls-2" d="M113.93,50.43h-3.08v1.69h2.72v1.57h-2.72v1.83h3.08v1.62h-5.11V48.8h5.11Z"></path><path class="cls-2" d="M39.92,100.13c-1.8,0-3.2-.89-3.26-2.58h2.16a1,1,0,0,0,1,1c.59,0,1-.3,1-.79,0-1.54-4.17-.71-4.15-3.67,0-1.58,1.3-2.46,3-2.46s3,.91,3.12,2.5h-2.2a.89.89,0,0,0-1-.87.74.74,0,0,0-.86.76c0,1.45,4.13.8,4.13,3.59C43,99,41.87,100.13,39.92,100.13Z"></path><path class="cls-2" d="M49.4,98.57H46.28l-.5,1.47H43.66l3-8.34H49l3,8.34H49.9ZM47.84,94l-1,3h2Z"></path><path class="cls-2" d="M52.51,91.7H59v1.63H56.75V100h-2V93.33H52.51Z"></path><path class="cls-2" d="M60,91.7h2V100H60Z"></path><path class="cls-2" d="M66.5,100.13c-1.79,0-3.19-.89-3.25-2.58h2.16a1,1,0,0,0,1,1c.6,0,1-.3,1-.79,0-1.54-4.17-.71-4.15-3.67,0-1.58,1.3-2.46,3-2.46s3,.91,3.13,2.5h-2.2a.9.9,0,0,0-1-.87.74.74,0,0,0-.86.76c0,1.45,4.13.8,4.13,3.59C69.55,99,68.45,100.13,66.5,100.13Z"></path><path class="cls-2" d="M70.79,91.7h5.43v1.63h-3.4v1.76h2.55v1.58H72.82V100h-2Z"></path><path class="cls-2" d="M82.48,98.57H79.37l-.5,1.47H76.74l3-8.34h2.35l3,8.34H83ZM80.92,94l-1,3H82Z"></path><path class="cls-2" d="M89.89,91.61a3.86,3.86,0,0,1,4,2.92H91.62a1.85,1.85,0,0,0-1.75-1.07,2.42,2.42,0,0,0,0,4.8,1.85,1.85,0,0,0,1.75-1.07h2.23a3.81,3.81,0,0,1-3.31,2.88v.46a1.39,1.39,0,0,1,1.54,1.36c0,1-.83,1.37-1.65,1.37H88.6v-1.11h1.56c.29,0,.47-.07.47-.31s-.18-.3-.47-.3h-.85v-1.47a4.25,4.25,0,0,1,.58-8.46Z"></path><path class="cls-2" d="M100.29,98.57H97.18l-.5,1.47H94.55l3-8.34h2.35l3,8.34h-2.15ZM98,89.36c.71,0,1.08.54,1.55.54.28,0,.47-.17.51-.54h1.05c-.2,1.25-.81,1.76-1.64,1.76s-1.08-.54-1.56-.54c-.27,0-.46.17-.52.54h-1C96.57,89.87,97.16,89.36,98,89.36ZM98.73,94l-1,3h2.06Z"></path><path class="cls-2" d="M107.8,100.13a4.28,4.28,0,1,1,4.26-4.28A4.19,4.19,0,0,1,107.8,100.13Zm0-1.86a2.44,2.44,0,1,0-2.21-2.42A2.18,2.18,0,0,0,107.8,98.27Z"></path><polygon class="cls-1" points="74.36 37.36 76.57 38.53 76.14 36.06 77.93 34.33 75.46 33.98 74.36 31.73 73.26 33.98 70.79 34.33 72.59 36.06 72.16 38.53 74.36 37.36"></polygon><polygon class="cls-1" points="82.94 38.02 85.15 39.19 84.72 36.73 86.51 34.99 84.04 34.63 82.94 32.39 81.84 34.63 79.37 34.99 81.17 36.73 80.74 39.19 82.94 38.02"></polygon><polygon class="cls-1" points="91.52 38.68 93.73 39.85 93.3 37.38 95.09 35.65 92.62 35.3 91.52 33.05 90.42 35.3 87.95 35.65 89.75 37.38 89.31 39.85 91.52 38.68"></polygon><polygon class="cls-1" points="65.78 38.02 67.99 39.19 67.56 36.73 69.35 34.99 66.88 34.63 65.78 32.39 64.69 34.63 62.21 34.99 64.01 36.73 63.58 39.19 65.78 38.02"></polygon><polygon class="cls-1" points="57.2 38.68 59.41 39.85 58.98 37.38 60.77 35.65 58.3 35.3 57.2 33.05 56.1 35.3 53.63 35.65 55.43 37.38 55 39.85 57.2 38.68"></polygon></g></g></svg>